<?xml version="1.0" encoding="utf-8"?>
<!-- Generator: Adobe Illustrator 16.2.0, SVG Export Plug-In . SVG Version: 6.00 Build 0)  -->
<!DOCTYPE svg PUBLIC "-//W3C//DTD SVG 1.1//EN" "http://www.w3.org/Graphics/SVG/1.1/DTD/svg11.dtd">
<svg version="1.1" id="Layer_1" xmlns="http://www.w3.org/2000/svg" xmlns:xlink="http://www.w3.org/1999/xlink" x="0px" y="0px"
	 width="60px" height="48px" viewBox="0 0 60 48" enable-background="new 0 0 60 48" xml:space="preserve">
<g>
	<g>
		<polygon fill="#CCFFFF" points="60,48 10.1,48 0,42 0,0 60,0 		"/>
		<polygon fill="#006666" points="60,0 50,0 40,0 30,0 30,10 40,10 40,42 50,42 50,10 60,10 		"/>
		<rect x="30" y="9" fill="#CCFFFF" width="10" height="33"/>
		<rect x="50" y="9" fill="#66CCCC" width="10" height="39"/>
		<polygon fill="#FF3333" points="20,0 20,16 10,16 10,0 0,0 0,16 0,26 0,42 10,42 10,26 20,26 20,42 30,42 30,26 30,16 30,0 		"/>
		<polygon fill="#66CCCC" points="60,48 10.1,48 0,42 50,42 		"/>
	</g>
	<polygon fill="#FF3333" points="50,42 60,42 60,48 	"/>
</g>
</svg>
